<svg xmlns="http://www.w3.org/2000/svg" xmlns:xlink="http://www.w3.org/1999/xlink" width="500" zoomAndPan="magnify" viewBox="0 0 375 374.999991" height="500" preserveAspectRatio="xMidYMid meet" version="1.0"><defs><clipPath id="3559b57b1a"><path d="M 182 128 L 303.46875 128 L 303.46875 258 L 182 258 Z M 182 128 " clip-rule="nonzero"/></clipPath><clipPath id="19eac08f92"><path d="M 146 203 L 272 203 L 272 326.851562 L 146 326.851562 Z M 146 203 " clip-rule="nonzero"/></clipPath><clipPath id="40271920ca"><path d="M 157 261 L 234 261 L 234 326.851562 L 157 326.851562 Z M 157 261 " clip-rule="nonzero"/></clipPath><clipPath id="ba671e3cce"><path d="M 127 47.851562 L 145 47.851562 L 145 65 L 127 65 Z M 127 47.851562 " clip-rule="nonzero"/></clipPath></defs><path fill="#f9ed32" d="M 193.386719 86.324219 C 194.382812 86.324219 195.367188 86.226562 196.34375 86.03125 C 197.320312 85.839844 198.269531 85.550781 199.1875 85.171875 C 200.109375 84.792969 200.980469 84.324219 201.808594 83.773438 C 202.636719 83.222656 203.402344 82.59375 204.105469 81.890625 C 204.8125 81.191406 205.441406 80.425781 205.992188 79.601562 C 206.546875 78.773438 207.015625 77.902344 207.394531 76.984375 C 207.777344 76.066406 208.066406 75.121094 208.257812 74.144531 C 208.453125 73.171875 208.550781 72.1875 208.550781 71.195312 C 208.554688 70.199219 208.457031 69.214844 208.261719 68.242188 C 208.070312 67.265625 207.78125 66.320312 207.402344 65.402344 C 207.023438 64.484375 206.554688 63.613281 206.003906 62.785156 C 205.453125 61.957031 204.824219 61.195312 204.121094 60.488281 C 203.417969 59.785156 202.652344 59.160156 201.824219 58.605469 C 201 58.054688 200.125 57.585938 199.207031 57.203125 C 198.285156 56.824219 197.339844 56.535156 196.363281 56.339844 C 195.386719 56.144531 194.402344 56.046875 193.40625 56.046875 C 192.410156 56.042969 191.425781 56.140625 190.449219 56.332031 C 189.472656 56.523438 188.523438 56.8125 187.601562 57.191406 C 186.683594 57.570312 185.808594 58.035156 184.980469 58.585938 C 184.152344 59.136719 183.382812 59.761719 182.679688 60.460938 C 181.972656 61.164062 181.34375 61.925781 180.789062 62.753906 C 180.234375 63.578125 179.765625 64.449219 179.382812 65.367188 C 179 66.285156 178.710938 67.230469 178.515625 68.203125 C 178.320312 69.179688 178.222656 70.160156 178.21875 71.15625 C 178.21875 72.148438 178.316406 73.136719 178.511719 74.109375 C 178.703125 75.085938 178.992188 76.035156 179.375 76.953125 C 179.753906 77.871094 180.222656 78.746094 180.773438 79.574219 C 181.328125 80.402344 181.957031 81.167969 182.660156 81.871094 C 183.363281 82.574219 184.128906 83.203125 184.957031 83.757812 C 185.785156 84.308594 186.660156 84.777344 187.578125 85.160156 C 188.5 85.542969 189.449219 85.832031 190.425781 86.027344 C 191.402344 86.222656 192.390625 86.320312 193.386719 86.324219 Z M 193.386719 86.324219 " fill-opacity="0.78" fill-rule="evenodd"/><path fill="#662d91" d="M 266.855469 97.996094 C 270.976562 102.765625 274.382812 107.996094 277.074219 113.691406 C 279.769531 119.386719 281.652344 125.339844 282.722656 131.542969 C 285.796875 149.488281 281.109375 166.105469 284.394531 177.269531 C 285.167969 179.773438 286.199219 182.167969 287.488281 184.445312 C 286.722656 184.894531 285.941406 185.316406 285.148438 185.71875 C 284.355469 186.121094 283.550781 186.5 282.738281 186.855469 C 281.921875 187.210938 281.097656 187.542969 280.265625 187.851562 C 279.429688 188.160156 278.589844 188.445312 277.738281 188.707031 C 276.890625 188.964844 276.035156 189.203125 275.167969 189.414062 C 274.304688 189.625 273.4375 189.8125 272.5625 189.972656 C 271.6875 190.132812 270.8125 190.269531 269.929688 190.382812 C 269.046875 190.492188 268.164062 190.578125 267.277344 190.640625 C 266.386719 190.699219 265.5 190.734375 264.613281 190.746094 C 263.722656 190.757812 262.832031 190.742188 261.945312 190.699219 C 261.058594 190.660156 260.171875 190.59375 259.289062 190.5 C 258.402344 190.410156 257.523438 190.292969 256.644531 190.148438 C 255.765625 190.007812 254.894531 189.839844 254.027344 189.648438 C 253.15625 189.457031 252.296875 189.238281 251.441406 188.996094 C 250.585938 188.757812 249.738281 188.492188 248.898438 188.199219 C 248.058594 187.910156 247.226562 187.597656 246.402344 187.257812 C 245.582031 186.921875 244.769531 186.558594 243.96875 186.175781 C 243.167969 185.792969 242.375 185.386719 241.597656 184.957031 C 240.820312 184.527344 240.054688 184.074219 239.304688 183.601562 C 238.550781 183.128906 237.8125 182.636719 237.089844 182.121094 C 236.367188 181.605469 235.65625 181.070312 234.964844 180.511719 C 234.269531 179.957031 233.59375 179.382812 232.933594 178.789062 C 232.273438 178.191406 231.632812 177.578125 231.007812 176.949219 C 230.382812 176.316406 229.777344 175.667969 229.1875 175.003906 C 228.601562 174.335938 228.035156 173.652344 227.484375 172.953125 C 226.9375 172.257812 226.410156 171.542969 225.902344 170.8125 C 225.394531 170.085938 224.910156 169.34375 224.445312 168.585938 C 223.980469 167.828125 223.539062 167.058594 223.117188 166.277344 C 222.695312 165.496094 222.300781 164.703125 221.925781 163.898438 C 221.550781 163.09375 221.199219 162.277344 220.871094 161.453125 C 220.542969 160.628906 220.238281 159.796875 219.960938 158.953125 C 219.679688 158.109375 219.421875 157.261719 219.191406 156.402344 C 218.960938 155.546875 218.753906 154.683594 218.574219 153.816406 C 218.390625 152.945312 218.234375 152.074219 218.101562 151.195312 C 217.972656 150.320312 217.867188 149.4375 217.785156 148.554688 C 217.703125 147.671875 217.648438 146.785156 217.617188 145.898438 C 217.589844 145.011719 217.585938 144.125 217.605469 143.238281 C 217.625 142.351562 217.671875 141.464844 217.746094 140.578125 C 217.816406 139.695312 217.914062 138.8125 218.035156 137.933594 C 218.160156 137.054688 218.304688 136.179688 218.480469 135.308594 C 218.652344 134.441406 218.851562 133.574219 219.070312 132.714844 C 219.292969 131.855469 219.542969 131.003906 219.8125 130.160156 C 220.085938 129.3125 220.378906 128.476562 220.699219 127.648438 C 221.019531 126.820312 221.363281 126.003906 221.730469 125.195312 C 222.09375 124.386719 222.484375 123.589844 222.898438 122.804688 C 223.308594 122.015625 223.746094 121.242188 224.203125 120.480469 C 224.65625 119.71875 225.136719 118.972656 225.636719 118.238281 C 226.136719 117.503906 226.65625 116.785156 227.199219 116.082031 C 227.738281 115.378906 228.300781 114.691406 228.878906 114.019531 C 229.460938 113.347656 230.0625 112.691406 230.679688 112.054688 C 231.296875 111.414062 231.933594 110.796875 232.585938 110.195312 C 233.242188 109.59375 233.910156 109.011719 234.597656 108.449219 C 235.285156 107.886719 235.988281 107.34375 236.707031 106.820312 C 237.425781 106.296875 238.160156 105.796875 238.90625 105.316406 C 239.652344 104.835938 240.414062 104.375 241.1875 103.9375 C 241.960938 103.5 242.746094 103.085938 243.546875 102.695312 C 244.34375 102.304688 245.152344 101.933594 245.96875 101.589844 C 246.789062 101.242188 247.617188 100.917969 248.453125 100.621094 C 249.289062 100.324219 250.136719 100.046875 250.988281 99.796875 C 251.84375 99.546875 252.703125 99.324219 253.566406 99.121094 C 254.433594 98.921875 255.304688 98.746094 256.179688 98.59375 C 257.058594 98.441406 257.9375 98.316406 258.820312 98.214844 C 259.703125 98.117188 260.589844 98.039062 261.476562 97.992188 C 262.363281 97.941406 263.253906 97.917969 264.140625 97.917969 C 265.015625 97.917969 265.941406 97.945312 266.855469 97.996094 Z M 266.855469 97.996094 " fill-opacity="0.78" fill-rule="evenodd"/><g clip-path="url(#3559b57b1a)"><path fill="#92278f" d="M 283.628906 139.4375 C 284.601562 154.304688 281.59375 167.765625 284.394531 177.308594 C 289.191406 193.613281 310.449219 208.382812 300.515625 216.773438 C 297.375 219.289062 291.964844 219.453125 288.792969 221.917969 C 283.746094 225.851562 287.199219 230.105469 287.644531 233.171875 C 287.859375 234.628906 286.535156 236.96875 282.167969 239.816406 C 285.464844 242.242188 285.164062 244.300781 283.988281 246.195312 C 282.378906 247.296875 280.726562 248.320312 279.027344 249.269531 C 277.324219 250.222656 275.585938 251.09375 273.808594 251.886719 C 272.027344 252.679688 270.214844 253.394531 268.371094 254.023438 C 266.527344 254.652344 264.660156 255.199219 262.765625 255.660156 C 260.875 256.121094 258.964844 256.496094 257.035156 256.785156 C 255.109375 257.074219 253.171875 257.277344 251.226562 257.390625 C 249.28125 257.507812 247.335938 257.535156 245.386719 257.472656 C 243.441406 257.410156 241.5 257.261719 239.5625 257.027344 C 237.628906 256.789062 235.710938 256.464844 233.804688 256.054688 C 231.898438 255.648438 230.015625 255.152344 228.15625 254.574219 C 226.296875 253.992188 224.464844 253.332031 222.664062 252.585938 C 220.867188 251.839844 219.101562 251.015625 217.378906 250.113281 C 215.652344 249.210938 213.96875 248.230469 212.332031 247.175781 C 210.695312 246.117188 209.109375 244.992188 207.574219 243.792969 C 206.039062 242.59375 204.5625 241.328125 203.144531 239.996094 C 201.722656 238.664062 200.367188 237.273438 199.070312 235.816406 C 197.777344 234.363281 196.550781 232.851562 195.394531 231.289062 C 194.238281 229.722656 193.152344 228.109375 192.140625 226.445312 C 191.132812 224.78125 190.195312 223.078125 189.339844 221.332031 C 188.484375 219.582031 187.707031 217.800781 187.011719 215.984375 C 186.316406 214.167969 185.707031 212.320312 185.179688 210.449219 C 184.648438 208.578125 184.207031 206.683594 183.851562 204.773438 C 183.492188 202.859375 183.222656 200.9375 183.042969 199 C 182.859375 197.0625 182.765625 195.121094 182.757812 193.175781 C 182.753906 191.230469 182.832031 189.289062 183.003906 187.351562 C 183.171875 185.414062 183.429688 183.488281 183.773438 181.574219 C 184.117188 179.65625 184.546875 177.761719 185.0625 175.886719 C 185.578125 174.011719 186.175781 172.160156 186.859375 170.339844 C 187.542969 168.519531 188.304688 166.730469 189.152344 164.976562 C 189.996094 163.226562 190.917969 161.515625 191.917969 159.84375 C 192.917969 158.175781 193.992188 156.554688 195.136719 154.980469 C 196.285156 153.40625 197.5 151.890625 198.785156 150.425781 C 200.066406 148.964844 201.414062 147.5625 202.828125 146.21875 C 204.238281 144.878906 205.707031 143.601562 207.234375 142.394531 C 208.761719 141.183594 210.339844 140.046875 211.96875 138.980469 C 213.597656 137.914062 215.273438 136.921875 216.992188 136.007812 C 218.710938 135.09375 220.46875 134.257812 222.265625 133.5 C 224.058594 132.742188 225.886719 132.066406 227.742188 131.476562 C 229.597656 130.882812 231.476562 130.375 233.378906 129.953125 C 235.28125 129.53125 237.199219 129.195312 239.132812 128.945312 C 241.066406 128.695312 243.003906 128.535156 244.953125 128.460938 C 246.898438 128.386719 248.847656 128.398438 250.792969 128.5 C 252.738281 128.601562 254.675781 128.792969 256.605469 129.066406 C 258.535156 129.34375 260.449219 129.707031 262.34375 130.15625 C 264.238281 130.605469 266.113281 131.136719 267.960938 131.753906 C 269.808594 132.371094 271.625 133.074219 273.410156 133.855469 C 275.191406 134.636719 276.9375 135.496094 278.644531 136.433594 C 280.351562 137.375 282.011719 138.390625 283.628906 139.476562 Z M 283.628906 139.4375 " fill-opacity="0.78" fill-rule="evenodd"/></g><g clip-path="url(#19eac08f92)"><path fill="#007fc6" d="M 269.785156 282.066406 C 245.21875 292.046875 212.335938 258.566406 207.910156 326.851562 C 191.941406 316.382812 175.015625 307.785156 157.136719 301.058594 C 156.402344 299.976562 155.699219 298.875 155.03125 297.75 C 154.363281 296.625 153.734375 295.480469 153.136719 294.316406 C 152.542969 293.152344 151.984375 291.96875 151.460938 290.769531 C 150.9375 289.570312 150.457031 288.355469 150.011719 287.125 C 149.5625 285.898438 149.15625 284.65625 148.789062 283.398438 C 148.421875 282.144531 148.09375 280.878906 147.804688 279.605469 C 147.515625 278.328125 147.269531 277.046875 147.0625 275.753906 C 146.851562 274.464844 146.683594 273.167969 146.558594 271.867188 C 146.429688 270.566406 146.34375 269.261719 146.300781 267.953125 C 146.253906 266.648438 146.25 265.339844 146.289062 264.035156 C 146.324219 262.726562 146.402344 261.421875 146.519531 260.121094 C 146.640625 258.820312 146.796875 257.523438 146.996094 256.230469 C 147.199219 254.9375 147.4375 253.652344 147.71875 252.375 C 147.996094 251.097656 148.316406 249.832031 148.675781 248.574219 C 149.035156 247.316406 149.4375 246.070312 149.875 244.839844 C 150.3125 243.605469 150.785156 242.390625 151.300781 241.1875 C 151.816406 239.984375 152.367188 238.796875 152.953125 237.628906 C 153.542969 236.460938 154.167969 235.3125 154.828125 234.183594 C 155.484375 233.054688 156.179688 231.945312 156.910156 230.859375 C 157.640625 229.773438 158.402344 228.714844 159.199219 227.675781 C 159.996094 226.636719 160.824219 225.625 161.683594 224.636719 C 162.542969 223.652344 163.433594 222.691406 164.351562 221.761719 C 165.269531 220.828125 166.21875 219.929688 167.195312 219.054688 C 168.171875 218.183594 169.171875 217.34375 170.203125 216.535156 C 171.230469 215.726562 172.285156 214.949219 173.363281 214.203125 C 174.4375 213.460938 175.539062 212.75 176.660156 212.078125 C 177.78125 211.402344 178.925781 210.761719 180.085938 210.160156 C 181.25 209.554688 182.429688 208.988281 183.625 208.457031 C 184.824219 207.929688 186.035156 207.4375 187.265625 206.980469 C 188.492188 206.527344 189.734375 206.113281 190.988281 205.734375 C 192.242188 205.359375 193.507812 205.019531 194.78125 204.722656 C 196.058594 204.425781 197.339844 204.167969 198.632812 203.949219 C 199.925781 203.730469 201.222656 203.554688 202.523438 203.417969 C 203.828125 203.28125 205.132812 203.183594 206.441406 203.128906 C 207.75 203.074219 209.058594 203.058594 210.371094 203.085938 C 211.679688 203.113281 212.988281 203.179688 214.292969 203.289062 C 215.597656 203.394531 216.898438 203.542969 218.195312 203.734375 C 219.488281 203.921875 220.777344 204.152344 222.0625 204.421875 C 223.34375 204.691406 224.613281 205 225.878906 205.351562 C 227.140625 205.699219 228.390625 206.085938 229.628906 206.515625 C 230.867188 206.941406 232.089844 207.40625 233.296875 207.910156 C 234.507812 208.414062 235.699219 208.953125 236.875 209.53125 C 238.050781 210.109375 239.203125 210.722656 240.339844 211.375 C 241.476562 212.023438 242.59375 212.710938 243.6875 213.429688 C 244.78125 214.148438 245.851562 214.902344 246.894531 215.6875 C 247.941406 216.476562 248.964844 217.292969 249.957031 218.144531 C 250.953125 218.992188 251.921875 219.875 252.863281 220.785156 C 253.800781 221.695312 254.710938 222.632812 255.59375 223.601562 C 256.472656 224.570312 257.324219 225.5625 258.144531 226.582031 C 258.960938 227.605469 259.75 228.648438 260.5 229.71875 C 261.253906 230.789062 261.972656 231.878906 262.660156 232.996094 C 263.34375 234.109375 263.992188 235.242188 264.609375 236.398438 C 265.222656 237.554688 265.800781 238.726562 266.339844 239.917969 C 266.878906 241.109375 267.382812 242.316406 267.847656 243.539062 C 268.3125 244.761719 268.738281 245.996094 269.125 247.246094 C 269.511719 248.496094 269.859375 249.753906 270.167969 251.023438 C 270.476562 252.296875 270.746094 253.574219 270.972656 254.863281 C 271.203125 256.148438 271.390625 257.441406 271.539062 258.742188 C 271.683594 260.042969 271.792969 261.34375 271.855469 262.648438 C 271.921875 263.957031 271.945312 265.261719 271.929688 266.570312 C 271.914062 267.875 271.859375 269.183594 271.757812 270.484375 C 271.660156 271.789062 271.523438 273.089844 271.34375 274.382812 C 271.164062 275.679688 270.945312 276.96875 270.683594 278.25 C 270.421875 279.53125 270.125 280.804688 269.785156 282.066406 Z M 269.785156 282.066406 " fill-opacity="0.78" fill-rule="evenodd"/></g><g clip-path="url(#40271920ca)"><path fill="#01a6e6" d="M 233.71875 282.414062 C 220.742188 282.960938 210.273438 290.417969 207.910156 326.851562 C 192.027344 316.445312 175.207031 307.882812 157.4375 301.167969 C 157.464844 300.0625 157.535156 298.957031 157.652344 297.859375 C 157.769531 296.757812 157.929688 295.667969 158.136719 294.582031 C 158.34375 293.492188 158.59375 292.417969 158.886719 291.351562 C 159.179688 290.285156 159.519531 289.234375 159.898438 288.195312 C 160.277344 287.15625 160.699219 286.136719 161.164062 285.128906 C 161.628906 284.125 162.132812 283.144531 162.675781 282.179688 C 163.21875 281.21875 163.800781 280.277344 164.421875 279.363281 C 165.042969 278.445312 165.699219 277.558594 166.394531 276.695312 C 167.085938 275.832031 167.816406 275 168.578125 274.199219 C 169.339844 273.394531 170.132812 272.625 170.957031 271.886719 C 171.78125 271.148438 172.632812 270.445312 173.515625 269.777344 C 174.398438 269.109375 175.304688 268.476562 176.242188 267.882812 C 177.175781 267.285156 178.132812 266.730469 179.109375 266.214844 C 180.089844 265.699219 181.089844 265.222656 182.105469 264.785156 C 183.125 264.351562 184.160156 263.957031 185.210938 263.605469 C 186.261719 263.257812 187.324219 262.949219 188.398438 262.683594 C 189.472656 262.417969 190.558594 262.199219 191.652344 262.023438 C 192.746094 261.847656 193.84375 261.714844 194.949219 261.628906 C 196.054688 261.542969 197.160156 261.5 198.265625 261.503906 C 199.375 261.507812 200.480469 261.558594 201.582031 261.652344 C 202.6875 261.746094 203.785156 261.882812 204.878906 262.066406 C 205.96875 262.25 207.054688 262.476562 208.128906 262.75 C 209.199219 263.019531 210.261719 263.335938 211.308594 263.695312 C 212.359375 264.050781 213.390625 264.453125 214.40625 264.894531 C 215.421875 265.335938 216.414062 265.816406 217.390625 266.339844 C 218.367188 266.863281 219.320312 267.425781 220.25 268.027344 C 221.179688 268.628906 222.082031 269.265625 222.960938 269.941406 C 223.839844 270.613281 224.6875 271.324219 225.507812 272.066406 C 226.328125 272.8125 227.117188 273.585938 227.871094 274.394531 C 228.628906 275.203125 229.351562 276.039062 230.039062 276.90625 C 230.726562 277.773438 231.378906 278.664062 231.992188 279.585938 C 232.605469 280.503906 233.183594 281.449219 233.71875 282.414062 Z M 233.71875 282.414062 " fill-opacity="0.78" fill-rule="evenodd"/></g><path fill="#2063b2" d="M 293.074219 219.832031 C 291.53125 220.277344 290.105469 220.960938 288.792969 221.878906 C 283.746094 225.8125 287.199219 230.066406 287.644531 233.136719 C 287.859375 234.589844 286.535156 236.933594 282.167969 239.777344 C 287.21875 243.496094 283.820312 246.339844 281.789062 249.078125 C 272.34375 255.875 285.484375 270.609375 269.902344 282.027344 C 254.167969 288.492188 235.042969 277.085938 222.125 285.84375 C 221.917969 284.664062 221.75 283.480469 221.621094 282.292969 C 221.488281 281.105469 221.394531 279.914062 221.335938 278.71875 C 221.28125 277.523438 221.257812 276.328125 221.277344 275.132812 C 221.292969 273.9375 221.347656 272.746094 221.4375 271.550781 C 221.53125 270.359375 221.660156 269.171875 221.824219 267.988281 C 221.988281 266.804688 222.191406 265.625 222.429688 264.453125 C 222.667969 263.28125 222.941406 262.117188 223.25 260.964844 C 223.5625 259.808594 223.910156 258.664062 224.289062 257.53125 C 224.671875 256.398438 225.089844 255.277344 225.539062 254.171875 C 225.992188 253.0625 226.476562 251.96875 226.996094 250.894531 C 227.515625 249.816406 228.066406 248.753906 228.652344 247.710938 C 229.238281 246.667969 229.855469 245.644531 230.503906 244.640625 C 231.152344 243.632812 231.832031 242.648438 232.539062 241.6875 C 233.25 240.722656 233.988281 239.785156 234.757812 238.867188 C 235.527344 237.949219 236.324219 237.054688 237.144531 236.1875 C 237.96875 235.320312 238.820312 234.476562 239.695312 233.664062 C 240.574219 232.847656 241.472656 232.058594 242.398438 231.300781 C 243.324219 230.539062 244.269531 229.808594 245.242188 229.109375 C 246.210938 228.410156 247.203125 227.738281 248.214844 227.097656 C 249.226562 226.460938 250.257812 225.851562 251.308594 225.277344 C 252.359375 224.699219 253.425781 224.15625 254.507812 223.648438 C 255.59375 223.136719 256.691406 222.664062 257.804688 222.21875 C 258.917969 221.777344 260.042969 221.371094 261.179688 221 C 262.320312 220.628906 263.46875 220.292969 264.628906 219.992188 C 265.789062 219.691406 266.953125 219.425781 268.128906 219.195312 C 269.304688 218.96875 270.488281 218.777344 271.675781 218.621094 C 272.863281 218.464844 274.054688 218.347656 275.25 218.265625 C 276.445312 218.183594 277.640625 218.140625 278.839844 218.132812 C 280.039062 218.125 281.234375 218.152344 282.429688 218.21875 C 283.625 218.285156 284.820312 218.390625 286.007812 218.53125 C 287.199219 218.671875 288.382812 218.847656 289.5625 219.0625 C 290.738281 219.277344 291.910156 219.527344 293.074219 219.8125 Z M 293.074219 219.832031 " fill-opacity="0.78" fill-rule="evenodd"/><path fill="#12bcbc" d="M 110.390625 220.558594 C 111.128906 220.558594 111.863281 220.523438 112.59375 220.453125 C 113.328125 220.382812 114.054688 220.273438 114.777344 220.128906 C 115.496094 219.988281 116.210938 219.808594 116.914062 219.597656 C 117.617188 219.382812 118.3125 219.136719 118.992188 218.855469 C 119.671875 218.574219 120.335938 218.261719 120.984375 217.917969 C 121.632812 217.570312 122.265625 217.191406 122.875 216.785156 C 123.488281 216.378906 124.078125 215.941406 124.648438 215.476562 C 125.214844 215.007812 125.761719 214.515625 126.28125 213.996094 C 126.800781 213.476562 127.296875 212.933594 127.761719 212.367188 C 128.230469 211.800781 128.667969 211.210938 129.074219 210.601562 C 129.484375 209.988281 129.863281 209.359375 130.210938 208.710938 C 130.558594 208.066406 130.871094 207.402344 131.152344 206.722656 C 131.433594 206.042969 131.683594 205.355469 131.894531 204.652344 C 132.109375 203.949219 132.289062 203.238281 132.433594 202.515625 C 132.578125 201.796875 132.683594 201.070312 132.757812 200.339844 C 132.828125 199.609375 132.863281 198.875 132.863281 198.140625 C 132.863281 197.40625 132.828125 196.675781 132.757812 195.945312 C 132.683594 195.210938 132.578125 194.488281 132.433594 193.765625 C 132.289062 193.046875 132.113281 192.335938 131.898438 191.632812 C 131.683594 190.929688 131.4375 190.238281 131.15625 189.558594 C 130.875 188.882812 130.558594 188.21875 130.214844 187.570312 C 129.867188 186.921875 129.488281 186.292969 129.078125 185.683594 C 128.671875 185.070312 128.234375 184.484375 127.765625 183.914062 C 127.300781 183.347656 126.804688 182.804688 126.285156 182.285156 C 125.765625 181.765625 125.222656 181.273438 124.652344 180.804688 C 124.082031 180.339844 123.492188 179.902344 122.882812 179.496094 C 122.269531 179.085938 121.640625 178.710938 120.988281 178.363281 C 120.339844 178.019531 119.675781 177.703125 118.996094 177.421875 C 118.316406 177.140625 117.625 176.894531 116.921875 176.683594 C 116.214844 176.46875 115.503906 176.289062 114.78125 176.148438 C 114.058594 176.003906 113.332031 175.898438 112.601562 175.824219 C 111.867188 175.753906 111.132812 175.71875 110.398438 175.71875 C 109.664062 175.71875 108.929688 175.753906 108.195312 175.824219 C 107.464844 175.898438 106.738281 176.003906 106.015625 176.148438 C 105.292969 176.292969 104.582031 176.46875 103.878906 176.683594 C 103.171875 176.898438 102.480469 177.144531 101.800781 177.425781 C 101.121094 177.707031 100.457031 178.019531 99.808594 178.367188 C 99.160156 178.714844 98.527344 179.089844 97.917969 179.5 C 97.304688 179.90625 96.714844 180.34375 96.148438 180.808594 C 95.578125 181.277344 95.035156 181.769531 94.511719 182.289062 C 93.992188 182.808594 93.5 183.351562 93.035156 183.917969 C 92.566406 184.488281 92.128906 185.078125 91.71875 185.6875 C 91.3125 186.296875 90.933594 186.929688 90.585938 187.574219 C 90.242188 188.222656 89.925781 188.886719 89.644531 189.566406 C 89.363281 190.246094 89.117188 190.933594 88.902344 191.636719 C 88.691406 192.339844 88.511719 193.050781 88.367188 193.773438 C 88.226562 194.492188 88.117188 195.21875 88.046875 195.949219 C 87.972656 196.679688 87.9375 197.414062 87.9375 198.148438 C 87.941406 198.882812 87.976562 199.613281 88.050781 200.34375 C 88.125 201.074219 88.234375 201.796875 88.378906 202.515625 C 88.523438 203.238281 88.703125 203.945312 88.917969 204.648438 C 89.128906 205.351562 89.378906 206.039062 89.660156 206.71875 C 89.941406 207.394531 90.257812 208.058594 90.605469 208.703125 C 90.953125 209.351562 91.328125 209.976562 91.738281 210.589844 C 92.144531 211.199219 92.582031 211.785156 93.050781 212.351562 C 93.515625 212.921875 94.011719 213.460938 94.53125 213.980469 C 95.050781 214.5 95.59375 214.992188 96.160156 215.457031 C 96.730469 215.921875 97.320312 216.359375 97.929688 216.769531 C 98.539062 217.175781 99.167969 217.554688 99.816406 217.898438 C 100.464844 218.246094 101.128906 218.558594 101.808594 218.839844 C 102.484375 219.121094 103.175781 219.371094 103.878906 219.585938 C 104.582031 219.796875 105.292969 219.976562 106.015625 220.121094 C 106.734375 220.265625 107.460938 220.375 108.191406 220.449219 C 108.925781 220.519531 109.65625 220.558594 110.390625 220.558594 Z M 110.390625 220.558594 " fill-opacity="0.78" fill-rule="evenodd"/><path fill="#00b9f1" d="M 157.4375 251.769531 C 158.109375 251.769531 158.78125 251.738281 159.449219 251.675781 C 160.117188 251.613281 160.78125 251.515625 161.441406 251.386719 C 162.097656 251.257812 162.75 251.097656 163.394531 250.90625 C 164.035156 250.710938 164.667969 250.488281 165.289062 250.234375 C 165.910156 249.976562 166.515625 249.695312 167.109375 249.378906 C 167.703125 249.066406 168.277344 248.722656 168.835938 248.351562 C 169.398438 247.980469 169.9375 247.582031 170.457031 247.160156 C 170.976562 246.734375 171.472656 246.285156 171.949219 245.8125 C 172.425781 245.339844 172.878906 244.847656 173.304688 244.328125 C 173.730469 243.8125 174.132812 243.273438 174.507812 242.71875 C 174.882812 242.164062 175.226562 241.589844 175.546875 241 C 175.863281 240.410156 176.152344 239.804688 176.410156 239.183594 C 176.667969 238.566406 176.894531 237.9375 177.089844 237.296875 C 177.289062 236.65625 177.453125 236.007812 177.582031 235.347656 C 177.714844 234.691406 177.816406 234.03125 177.882812 233.363281 C 177.949219 232.695312 177.984375 232.027344 177.984375 231.359375 C 177.988281 230.6875 177.957031 230.019531 177.890625 229.351562 C 177.828125 228.683594 177.730469 228.023438 177.597656 227.367188 C 177.46875 226.707031 177.308594 226.058594 177.113281 225.417969 C 176.921875 224.773438 176.695312 224.144531 176.4375 223.523438 C 176.183594 222.90625 175.898438 222.300781 175.582031 221.707031 C 175.265625 221.117188 174.921875 220.542969 174.550781 219.984375 C 174.179688 219.425781 173.78125 218.886719 173.355469 218.371094 C 172.929688 217.851562 172.480469 217.355469 172.003906 216.878906 C 171.53125 216.40625 171.035156 215.953125 170.515625 215.527344 C 170 215.101562 169.460938 214.703125 168.902344 214.332031 C 168.34375 213.957031 167.769531 213.613281 167.179688 213.296875 C 166.585938 212.980469 165.980469 212.691406 165.359375 212.433594 C 164.742188 212.179688 164.109375 211.953125 163.46875 211.757812 C 162.824219 211.5625 162.175781 211.398438 161.515625 211.265625 C 160.859375 211.132812 160.195312 211.035156 159.527344 210.96875 C 158.859375 210.902344 158.1875 210.871094 157.515625 210.867188 C 156.84375 210.867188 156.175781 210.902344 155.507812 210.964844 C 154.839844 211.03125 154.175781 211.128906 153.515625 211.257812 C 152.859375 211.390625 152.207031 211.550781 151.566406 211.746094 C 150.921875 211.9375 150.292969 212.164062 149.671875 212.421875 C 149.050781 212.675781 148.445312 212.960938 147.851562 213.277344 C 147.257812 213.59375 146.683594 213.9375 146.125 214.308594 C 145.566406 214.679688 145.027344 215.078125 144.507812 215.503906 C 143.988281 215.929688 143.492188 216.378906 143.015625 216.851562 C 142.542969 217.324219 142.089844 217.820312 141.664062 218.339844 C 141.238281 218.855469 140.839844 219.394531 140.464844 219.953125 C 140.09375 220.507812 139.75 221.082031 139.429688 221.671875 C 139.113281 222.265625 138.828125 222.871094 138.570312 223.488281 C 138.3125 224.109375 138.085938 224.738281 137.894531 225.378906 C 137.699219 226.019531 137.535156 226.667969 137.402344 227.328125 C 137.273438 227.984375 137.175781 228.644531 137.109375 229.3125 C 137.042969 229.980469 137.007812 230.648438 137.007812 231.320312 C 137.011719 231.988281 137.042969 232.652344 137.109375 233.320312 C 137.179688 233.984375 137.277344 234.644531 137.40625 235.300781 C 137.539062 235.953125 137.703125 236.601562 137.898438 237.242188 C 138.089844 237.878906 138.316406 238.507812 138.574219 239.125 C 138.828125 239.742188 139.117188 240.347656 139.429688 240.933594 C 139.746094 241.523438 140.089844 242.097656 140.460938 242.652344 C 140.832031 243.210938 141.230469 243.746094 141.65625 244.261719 C 142.078125 244.78125 142.527344 245.273438 143 245.746094 C 143.472656 246.222656 143.96875 246.667969 144.484375 247.09375 C 145 247.519531 145.539062 247.917969 146.09375 248.289062 C 146.648438 248.664062 147.222656 249.007812 147.8125 249.324219 C 148.402344 249.640625 149.003906 249.929688 149.621094 250.1875 C 150.242188 250.441406 150.871094 250.671875 151.507812 250.867188 C 152.148438 251.0625 152.796875 251.226562 153.453125 251.359375 C 154.109375 251.492188 154.769531 251.59375 155.4375 251.660156 C 156.101562 251.730469 156.769531 251.765625 157.4375 251.769531 Z M 157.4375 251.769531 " fill-opacity="0.78" fill-rule="evenodd"/><path fill="#8dc63f" d="M 107.164062 165.996094 C 108.195312 165.996094 109.21875 165.894531 110.234375 165.695312 C 111.246094 165.492188 112.230469 165.195312 113.1875 164.800781 C 114.140625 164.40625 115.050781 163.921875 115.910156 163.347656 C 116.769531 162.773438 117.5625 162.125 118.292969 161.394531 C 119.023438 160.664062 119.675781 159.871094 120.25 159.011719 C 120.824219 158.15625 121.308594 157.25 121.707031 156.296875 C 122.101562 155.34375 122.398438 154.359375 122.601562 153.347656 C 122.800781 152.335938 122.902344 151.3125 122.902344 150.28125 C 122.902344 149.25 122.800781 148.230469 122.601562 147.21875 C 122.398438 146.203125 122.097656 145.222656 121.703125 144.269531 C 121.308594 143.316406 120.824219 142.410156 120.246094 141.554688 C 119.671875 140.695312 119.019531 139.902344 118.289062 139.171875 C 117.558594 138.441406 116.761719 137.792969 115.902344 137.21875 C 115.042969 136.644531 114.136719 136.164062 113.179688 135.769531 C 112.226562 135.375 111.242188 135.074219 110.226562 134.875 C 109.214844 134.675781 108.191406 134.574219 107.15625 134.574219 C 106.121094 134.574219 105.097656 134.675781 104.085938 134.878906 C 103.070312 135.078125 102.085938 135.378906 101.132812 135.773438 C 100.175781 136.167969 99.269531 136.652344 98.410156 137.226562 C 97.550781 137.800781 96.757812 138.453125 96.027344 139.179688 C 95.296875 139.910156 94.644531 140.707031 94.070312 141.5625 C 93.496094 142.421875 93.011719 143.328125 92.617188 144.28125 C 92.222656 145.234375 91.921875 146.21875 91.722656 147.230469 C 91.519531 148.242188 91.421875 149.261719 91.421875 150.296875 C 91.421875 151.324219 91.527344 152.347656 91.730469 153.359375 C 91.933594 154.367188 92.230469 155.351562 92.628906 156.300781 C 93.023438 157.253906 93.507812 158.15625 94.082031 159.015625 C 94.65625 159.871094 95.3125 160.664062 96.042969 161.394531 C 96.773438 162.121094 97.566406 162.773438 98.425781 163.34375 C 99.285156 163.917969 100.191406 164.402344 101.144531 164.796875 C 102.097656 165.191406 103.082031 165.488281 104.09375 165.691406 C 105.105469 165.894531 106.128906 165.996094 107.164062 165.996094 Z M 107.164062 165.996094 " fill-opacity="0.78" fill-rule="evenodd"/><path fill="#ffd900" d="M 99.3125 111.25 C 99.3125 112.144531 99.222656 113.027344 99.050781 113.902344 C 98.875 114.78125 98.617188 115.628906 98.273438 116.457031 C 97.929688 117.28125 97.511719 118.066406 97.015625 118.808594 C 96.515625 119.550781 95.953125 120.238281 95.320312 120.871094 C 94.6875 121.5 94 122.066406 93.253906 122.5625 C 92.511719 123.058594 91.722656 123.476562 90.898438 123.820312 C 90.070312 124.160156 89.21875 124.417969 88.339844 124.59375 C 87.464844 124.765625 86.578125 124.855469 85.683594 124.855469 C 84.785156 124.855469 83.902344 124.765625 83.023438 124.59375 C 82.144531 124.417969 81.292969 124.160156 80.464844 123.820312 C 79.640625 123.476562 78.855469 123.058594 78.109375 122.5625 C 77.367188 122.066406 76.675781 121.5 76.042969 120.871094 C 75.410156 120.238281 74.847656 119.550781 74.347656 118.808594 C 73.851562 118.066406 73.433594 117.28125 73.089844 116.457031 C 72.746094 115.628906 72.488281 114.78125 72.3125 113.902344 C 72.140625 113.027344 72.050781 112.144531 72.050781 111.25 C 72.050781 110.355469 72.140625 109.472656 72.3125 108.59375 C 72.488281 107.71875 72.746094 106.867188 73.089844 106.042969 C 73.433594 105.21875 73.851562 104.433594 74.347656 103.691406 C 74.847656 102.949219 75.410156 102.261719 76.042969 101.628906 C 76.675781 101 77.367188 100.433594 78.109375 99.9375 C 78.855469 99.441406 79.640625 99.023438 80.464844 98.679688 C 81.292969 98.339844 82.144531 98.082031 83.023438 97.90625 C 83.902344 97.734375 84.785156 97.644531 85.683594 97.644531 C 86.578125 97.644531 87.464844 97.734375 88.339844 97.90625 C 89.21875 98.082031 90.070312 98.339844 90.898438 98.679688 C 91.722656 99.023438 92.511719 99.441406 93.253906 99.9375 C 94 100.433594 94.6875 101 95.320312 101.628906 C 95.953125 102.261719 96.515625 102.949219 97.015625 103.691406 C 97.511719 104.433594 97.929688 105.21875 98.273438 106.042969 C 98.617188 106.867188 98.875 107.71875 99.050781 108.59375 C 99.222656 109.472656 99.3125 110.355469 99.3125 111.25 Z M 99.3125 111.25 " fill-opacity="0.78" fill-rule="nonzero"/><path fill="#009444" d="M 114.476562 86.324219 C 115.3125 86.324219 116.140625 86.242188 116.960938 86.082031 C 117.78125 85.917969 118.578125 85.679688 119.347656 85.359375 C 120.121094 85.039062 120.855469 84.648438 121.550781 84.1875 C 122.246094 83.722656 122.890625 83.199219 123.480469 82.609375 C 124.070312 82.019531 124.597656 81.378906 125.0625 80.683594 C 125.527344 79.992188 125.921875 79.257812 126.242188 78.488281 C 126.5625 77.71875 126.804688 76.925781 126.96875 76.105469 C 127.128906 75.289062 127.210938 74.460938 127.210938 73.628906 C 127.214844 72.792969 127.132812 71.96875 126.96875 71.148438 C 126.808594 70.332031 126.566406 69.539062 126.246094 68.765625 C 125.925781 67.996094 125.535156 67.261719 125.070312 66.570312 C 124.605469 65.875 124.078125 65.234375 123.488281 64.644531 C 122.898438 64.054688 122.253906 63.527344 121.5625 63.0625 C 120.867188 62.601562 120.132812 62.207031 119.359375 61.890625 C 118.589844 61.570312 117.792969 61.328125 116.972656 61.164062 C 116.15625 61.003906 115.328125 60.921875 114.492188 60.921875 C 113.65625 60.921875 112.828125 61 112.007812 61.164062 C 111.1875 61.328125 110.394531 61.566406 109.621094 61.886719 C 108.847656 62.207031 108.113281 62.597656 107.421875 63.058594 C 106.726562 63.523438 106.082031 64.050781 105.492188 64.640625 C 104.898438 65.230469 104.371094 65.871094 103.910156 66.5625 C 103.445312 67.257812 103.050781 67.988281 102.730469 68.761719 C 102.414062 69.53125 102.171875 70.324219 102.007812 71.144531 C 101.84375 71.960938 101.761719 72.789062 101.761719 73.621094 C 101.765625 74.453125 101.847656 75.28125 102.011719 76.097656 C 102.175781 76.914062 102.414062 77.707031 102.734375 78.476562 C 103.054688 79.246094 103.449219 79.976562 103.910156 80.671875 C 104.375 81.363281 104.902344 82.003906 105.492188 82.59375 C 106.082031 83.183594 106.722656 83.710938 107.417969 84.171875 C 108.113281 84.636719 108.84375 85.027344 109.613281 85.347656 C 110.386719 85.667969 111.179688 85.910156 112 86.074219 C 112.816406 86.238281 113.644531 86.320312 114.476562 86.324219 Z M 114.476562 86.324219 " fill-opacity="0.78" fill-rule="evenodd"/><path fill="#56ba48" d="M 118.796875 117.980469 C 119.347656 117.980469 119.894531 117.925781 120.4375 117.816406 C 120.980469 117.710938 121.503906 117.550781 122.015625 117.339844 C 122.523438 117.128906 123.007812 116.871094 123.46875 116.566406 C 123.925781 116.257812 124.351562 115.910156 124.742188 115.523438 C 125.132812 115.132812 125.480469 114.707031 125.785156 114.25 C 126.09375 113.792969 126.351562 113.308594 126.5625 112.800781 C 126.773438 112.289062 126.933594 111.765625 127.042969 111.226562 C 127.148438 110.6875 127.203125 110.140625 127.203125 109.589844 C 127.203125 109.039062 127.148438 108.492188 127.042969 107.953125 C 126.933594 107.410156 126.773438 106.886719 126.5625 106.378906 C 126.351562 105.871094 126.09375 105.386719 125.785156 104.929688 C 125.480469 104.46875 125.132812 104.046875 124.742188 103.65625 C 124.351562 103.265625 123.925781 102.917969 123.46875 102.613281 C 123.007812 102.308594 122.523438 102.046875 122.015625 101.839844 C 121.503906 101.628906 120.980469 101.46875 120.4375 101.359375 C 119.894531 101.253906 119.347656 101.199219 118.796875 101.199219 C 118.246094 101.199219 117.699219 101.253906 117.15625 101.359375 C 116.617188 101.46875 116.089844 101.628906 115.582031 101.839844 C 115.070312 102.046875 114.585938 102.308594 114.128906 102.613281 C 113.667969 102.917969 113.246094 103.265625 112.855469 103.65625 C 112.464844 104.046875 112.117188 104.46875 111.808594 104.929688 C 111.503906 105.386719 111.242188 105.871094 111.03125 106.378906 C 110.820312 106.886719 110.660156 107.410156 110.554688 107.953125 C 110.445312 108.492188 110.390625 109.039062 110.390625 109.589844 C 110.394531 110.140625 110.449219 110.683594 110.558594 111.222656 C 110.664062 111.765625 110.824219 112.289062 111.039062 112.796875 C 111.25 113.304688 111.507812 113.789062 111.816406 114.246094 C 112.121094 114.703125 112.46875 115.125 112.859375 115.515625 C 113.25 115.90625 113.675781 116.253906 114.132812 116.558594 C 114.589844 116.863281 115.074219 117.125 115.585938 117.335938 C 116.09375 117.546875 116.617188 117.707031 117.160156 117.816406 C 117.699219 117.921875 118.246094 117.976562 118.796875 117.980469 Z M 118.796875 117.980469 " fill-opacity="0.78" fill-rule="evenodd"/><g clip-path="url(#ba671e3cce)"><path fill="#fbad17" d="M 136.328125 64.628906 C 136.878906 64.628906 137.425781 64.574219 137.96875 64.46875 C 138.507812 64.359375 139.035156 64.203125 139.546875 63.992188 C 140.054688 63.78125 140.539062 63.523438 141 63.214844 C 141.457031 62.910156 141.882812 62.5625 142.273438 62.171875 C 142.664062 61.78125 143.011719 61.359375 143.316406 60.902344 C 143.625 60.441406 143.882812 59.960938 144.09375 59.449219 C 144.304688 58.941406 144.464844 58.417969 144.574219 57.875 C 144.679688 57.335938 144.734375 56.789062 144.734375 56.238281 C 144.734375 55.6875 144.679688 55.144531 144.574219 54.601562 C 144.464844 54.0625 144.304688 53.539062 144.09375 53.03125 C 143.882812 52.519531 143.625 52.035156 143.316406 51.578125 C 143.011719 51.121094 142.664062 50.695312 142.273438 50.308594 C 141.882812 49.917969 141.457031 49.570312 141 49.265625 C 140.539062 48.957031 140.054688 48.699219 139.546875 48.488281 C 139.035156 48.277344 138.507812 48.117188 137.96875 48.011719 C 137.425781 47.902344 136.878906 47.851562 136.328125 47.851562 C 135.777344 47.851562 135.230469 47.902344 134.6875 48.011719 C 134.148438 48.117188 133.621094 48.277344 133.113281 48.488281 C 132.601562 48.699219 132.117188 48.957031 131.660156 49.265625 C 131.199219 49.570312 130.773438 49.917969 130.386719 50.308594 C 129.996094 50.695312 129.644531 51.121094 129.339844 51.578125 C 129.03125 52.035156 128.773438 52.519531 128.5625 53.03125 C 128.351562 53.539062 128.191406 54.0625 128.085938 54.601562 C 127.976562 55.144531 127.921875 55.6875 127.921875 56.238281 C 127.925781 56.789062 127.980469 57.335938 128.085938 57.875 C 128.195312 58.414062 128.355469 58.9375 128.566406 59.449219 C 128.78125 59.957031 129.039062 60.4375 129.34375 60.898438 C 129.652344 61.355469 130 61.777344 130.390625 62.167969 C 130.78125 62.554688 131.203125 62.902344 131.664062 63.210938 C 132.121094 63.515625 132.605469 63.773438 133.113281 63.984375 C 133.625 64.199219 134.148438 64.355469 134.691406 64.464844 C 135.230469 64.574219 135.777344 64.628906 136.328125 64.628906 Z M 136.328125 64.628906 " fill-opacity="0.78" fill-rule="evenodd"/></g><path fill="#f15c22" d="M 84.699219 83.332031 C 85.117188 83.332031 85.53125 83.289062 85.9375 83.203125 C 86.347656 83.121094 86.746094 83 87.128906 82.839844 C 87.515625 82.675781 87.878906 82.480469 88.226562 82.246094 C 88.570312 82.015625 88.890625 81.75 89.1875 81.453125 C 89.480469 81.160156 89.742188 80.835938 89.972656 80.492188 C 90.203125 80.144531 90.398438 79.777344 90.554688 79.390625 C 90.714844 79.007812 90.835938 78.609375 90.914062 78.199219 C 90.996094 77.792969 91.035156 77.378906 91.03125 76.960938 C 91.03125 76.546875 90.988281 76.132812 90.90625 75.726562 C 90.824219 75.316406 90.703125 74.921875 90.542969 74.535156 C 90.382812 74.152344 90.183594 73.785156 89.953125 73.441406 C 89.71875 73.09375 89.453125 72.773438 89.160156 72.480469 C 88.863281 72.1875 88.542969 71.925781 88.195312 71.695312 C 87.847656 71.464844 87.480469 71.269531 87.09375 71.109375 C 86.707031 70.949219 86.308594 70.832031 85.902344 70.75 C 85.492188 70.671875 85.078125 70.628906 84.660156 70.632812 C 84.242188 70.632812 83.828125 70.671875 83.421875 70.753906 C 83.011719 70.835938 82.613281 70.957031 82.230469 71.117188 C 81.84375 71.277344 81.476562 71.472656 81.128906 71.703125 C 80.785156 71.9375 80.460938 72.199219 80.167969 72.496094 C 79.871094 72.789062 79.609375 73.109375 79.378906 73.457031 C 79.144531 73.804688 78.949219 74.167969 78.789062 74.554688 C 78.632812 74.9375 78.511719 75.335938 78.429688 75.742188 C 78.347656 76.152344 78.308594 76.566406 78.308594 76.980469 C 78.308594 77.398438 78.351562 77.8125 78.433594 78.222656 C 78.515625 78.632812 78.640625 79.03125 78.800781 79.414062 C 78.960938 79.800781 79.160156 80.167969 79.390625 80.515625 C 79.625 80.859375 79.890625 81.183594 80.1875 81.476562 C 80.484375 81.773438 80.804688 82.035156 81.15625 82.265625 C 81.503906 82.496094 81.871094 82.691406 82.257812 82.851562 C 82.644531 83.011719 83.042969 83.132812 83.457031 83.210938 C 83.867188 83.292969 84.28125 83.332031 84.699219 83.332031 Z M 84.699219 83.332031 " fill-opacity="0.78" fill-rule="evenodd"/><path fill="#fbad17" d="M 235.9375 148.121094 C 235.9375 149.859375 235.851562 151.59375 235.683594 153.320312 C 235.511719 155.050781 235.257812 156.769531 234.917969 158.472656 C 234.578125 160.175781 234.15625 161.863281 233.648438 163.523438 C 233.144531 165.1875 232.558594 166.824219 231.890625 168.429688 C 231.226562 170.035156 230.480469 171.601562 229.660156 173.136719 C 228.839844 174.667969 227.945312 176.15625 226.976562 177.601562 C 226.011719 179.046875 224.976562 180.441406 223.871094 181.785156 C 222.765625 183.128906 221.597656 184.414062 220.367188 185.644531 C 219.136719 186.875 217.847656 188.039062 216.5 189.140625 C 215.15625 190.246094 213.757812 191.277344 212.308594 192.242188 C 210.863281 193.210938 209.371094 194.101562 207.835938 194.921875 C 206.300781 195.742188 204.726562 196.484375 203.117188 197.148438 C 201.507812 197.8125 199.871094 198.398438 198.207031 198.902344 C 196.539062 199.40625 194.851562 199.828125 193.144531 200.167969 C 191.4375 200.507812 189.714844 200.761719 187.984375 200.933594 C 186.25 201.101562 184.511719 201.1875 182.773438 201.1875 C 181.03125 201.1875 179.292969 201.101562 177.5625 200.933594 C 175.828125 200.761719 174.109375 200.507812 172.398438 200.167969 C 170.691406 199.828125 169.003906 199.40625 167.339844 198.902344 C 165.671875 198.398438 164.035156 197.8125 162.425781 197.148438 C 160.816406 196.484375 159.246094 195.742188 157.710938 194.921875 C 156.175781 194.101562 154.683594 193.210938 153.234375 192.242188 C 151.785156 191.277344 150.390625 190.246094 149.042969 189.140625 C 147.699219 188.039062 146.410156 186.875 145.179688 185.644531 C 143.945312 184.414062 142.777344 183.128906 141.675781 181.785156 C 140.570312 180.441406 139.535156 179.046875 138.566406 177.601562 C 137.597656 176.15625 136.703125 174.667969 135.882812 173.136719 C 135.0625 171.601562 134.320312 170.035156 133.652344 168.429688 C 132.988281 166.824219 132.402344 165.1875 131.894531 163.523438 C 131.390625 161.863281 130.96875 160.175781 130.628906 158.472656 C 130.289062 156.769531 130.03125 155.050781 129.863281 153.320312 C 129.691406 151.59375 129.605469 149.859375 129.605469 148.121094 C 129.605469 146.382812 129.691406 144.648438 129.863281 142.917969 C 130.03125 141.1875 130.289062 139.472656 130.628906 137.765625 C 130.96875 136.0625 131.390625 134.378906 131.894531 132.714844 C 132.402344 131.050781 132.988281 129.417969 133.652344 127.8125 C 134.320312 126.207031 135.0625 124.636719 135.882812 123.105469 C 136.703125 121.570312 137.597656 120.082031 138.566406 118.636719 C 139.535156 117.191406 140.570312 115.796875 141.675781 114.453125 C 142.777344 113.109375 143.945312 111.824219 145.179688 110.597656 C 146.410156 109.367188 147.699219 108.199219 149.042969 107.097656 C 150.390625 105.996094 151.785156 104.960938 153.234375 103.996094 C 154.683594 103.03125 156.175781 102.136719 157.710938 101.320312 C 159.246094 100.5 160.816406 99.757812 162.425781 99.09375 C 164.035156 98.425781 165.671875 97.84375 167.339844 97.335938 C 169.003906 96.832031 170.691406 96.410156 172.398438 96.074219 C 174.109375 95.734375 175.828125 95.480469 177.5625 95.308594 C 179.292969 95.136719 181.03125 95.050781 182.773438 95.050781 C 184.511719 95.050781 186.25 95.136719 187.984375 95.308594 C 189.714844 95.480469 191.4375 95.734375 193.144531 96.074219 C 194.851562 96.410156 196.539062 96.832031 198.207031 97.335938 C 199.871094 97.84375 201.507812 98.425781 203.117188 99.09375 C 204.726562 99.757812 206.300781 100.5 207.835938 101.320312 C 209.371094 102.136719 210.863281 103.03125 212.308594 103.996094 C 213.757812 104.960938 215.15625 105.996094 216.5 107.097656 C 217.847656 108.199219 219.136719 109.367188 220.367188 110.597656 C 221.597656 111.824219 222.765625 113.109375 223.871094 114.453125 C 224.976562 115.796875 226.011719 117.191406 226.976562 118.636719 C 227.945312 120.082031 228.839844 121.570312 229.660156 123.105469 C 230.480469 124.636719 231.226562 126.207031 231.890625 127.8125 C 232.558594 129.417969 233.144531 131.050781 233.648438 132.714844 C 234.15625 134.378906 234.578125 136.0625 234.917969 137.765625 C 235.257812 139.472656 235.511719 141.1875 235.683594 142.917969 C 235.851562 144.648438 235.9375 146.382812 235.9375 148.121094 Z M 235.9375 148.121094 " fill-opacity="0.78" fill-rule="nonzero"/><path fill="#ec008b" d="M 212.140625 67.796875 C 237.621094 73.039062 258.964844 85.777344 271.554688 104.101562 C 271.445312 104.878906 271.3125 105.652344 271.160156 106.417969 C 271.003906 107.1875 270.824219 107.949219 270.621094 108.703125 C 270.417969 109.460938 270.191406 110.210938 269.941406 110.953125 C 269.691406 111.695312 269.417969 112.429688 269.121094 113.15625 C 268.828125 113.882812 268.507812 114.597656 268.167969 115.304688 C 267.828125 116.007812 267.46875 116.703125 267.085938 117.386719 C 266.703125 118.070312 266.296875 118.742188 265.875 119.402344 C 265.449219 120.0625 265.003906 120.707031 264.539062 121.335938 C 264.074219 121.96875 263.589844 122.585938 263.089844 123.1875 C 262.585938 123.789062 262.0625 124.371094 261.523438 124.941406 C 260.984375 125.511719 260.429688 126.0625 259.855469 126.597656 C 259.28125 127.132812 258.691406 127.648438 258.085938 128.148438 C 257.480469 128.644531 256.859375 129.125 256.226562 129.585938 C 255.589844 130.042969 254.941406 130.484375 254.277344 130.902344 C 253.617188 131.324219 252.941406 131.722656 252.253906 132.101562 C 251.566406 132.476562 250.867188 132.835938 250.160156 133.167969 C 249.449219 133.503906 248.730469 133.816406 248 134.105469 C 247.273438 134.398438 246.535156 134.664062 245.789062 134.910156 C 245.042969 135.15625 244.292969 135.375 243.53125 135.574219 C 242.773438 135.773438 242.007812 135.945312 241.238281 136.097656 C 240.46875 136.25 239.695312 136.375 238.917969 136.480469 C 238.136719 136.582031 237.359375 136.660156 236.574219 136.714844 C 235.792969 136.769531 235.007812 136.800781 234.222656 136.808594 C 233.4375 136.8125 232.65625 136.796875 231.871094 136.753906 C 231.085938 136.710938 230.304688 136.644531 229.527344 136.554688 C 228.746094 136.464844 227.96875 136.351562 227.199219 136.210938 C 226.425781 136.074219 225.660156 135.910156 224.894531 135.722656 C 224.132812 135.539062 223.378906 135.328125 222.628906 135.097656 C 221.878906 134.863281 221.136719 134.609375 220.402344 134.328125 C 219.671875 134.050781 218.945312 133.75 218.230469 133.425781 C 217.515625 133.101562 216.8125 132.757812 216.121094 132.390625 C 215.425781 132.023438 214.746094 131.636719 214.074219 131.226562 C 213.40625 130.820312 212.75 130.390625 212.105469 129.941406 C 211.464844 129.488281 210.835938 129.019531 210.222656 128.53125 C 209.609375 128.042969 209.011719 127.539062 208.429688 127.011719 C 207.847656 126.488281 207.28125 125.945312 206.734375 125.382812 C 206.183594 124.824219 205.65625 124.246094 205.140625 123.652344 C 204.628906 123.058594 204.136719 122.453125 203.660156 121.828125 C 203.1875 121.203125 202.730469 120.566406 202.296875 119.914062 C 201.859375 119.261719 201.445312 118.597656 201.050781 117.921875 C 200.660156 117.242188 200.285156 116.554688 199.933594 115.851562 C 199.582031 115.152344 199.253906 114.441406 198.949219 113.722656 C 198.640625 113 198.355469 112.269531 198.09375 111.53125 C 197.832031 110.792969 197.59375 110.046875 197.378906 109.292969 C 197.164062 108.542969 196.96875 107.78125 196.800781 107.015625 C 196.632812 106.25 196.488281 105.480469 196.367188 104.707031 C 196.25 103.933594 196.152344 103.15625 196.078125 102.378906 C 196.007812 101.597656 195.957031 100.816406 195.933594 100.03125 C 195.910156 99.25 195.910156 98.46875 195.9375 97.683594 C 195.960938 96.902344 196.011719 96.121094 196.082031 95.339844 C 196.15625 94.558594 196.253906 93.78125 196.375 93.007812 C 196.496094 92.234375 196.640625 91.464844 196.8125 90.699219 C 196.980469 89.9375 197.171875 89.175781 197.390625 88.425781 C 197.605469 87.671875 197.84375 86.925781 198.109375 86.1875 C 198.371094 85.449219 198.65625 84.71875 198.964844 84 C 199.273438 83.277344 199.601562 82.566406 199.953125 81.867188 C 200.304688 81.167969 200.679688 80.480469 201.074219 79.800781 C 201.46875 79.125 201.882812 78.460938 202.320312 77.808594 C 202.757812 77.160156 203.210938 76.519531 203.6875 75.898438 C 204.164062 75.273438 204.65625 74.667969 205.171875 74.074219 C 205.683594 73.480469 206.214844 72.90625 206.765625 72.347656 C 207.3125 71.785156 207.878906 71.242188 208.460938 70.71875 C 209.042969 70.195312 209.640625 69.6875 210.257812 69.199219 C 210.871094 68.710938 211.5 68.246094 212.140625 67.796875 Z M 212.140625 67.796875 " fill-opacity="0.78" fill-rule="evenodd"/><path fill="#56ba48" d="M 164.871094 124.863281 C 165.914062 124.863281 166.957031 124.8125 167.992188 124.710938 C 169.03125 124.609375 170.0625 124.457031 171.085938 124.253906 C 172.105469 124.050781 173.117188 123.800781 174.117188 123.496094 C 175.113281 123.195312 176.09375 122.847656 177.058594 122.449219 C 178.023438 122.050781 178.964844 121.605469 179.882812 121.113281 C 180.804688 120.625 181.695312 120.089844 182.566406 119.511719 C 183.433594 118.933594 184.269531 118.316406 185.074219 117.65625 C 185.882812 116.996094 186.652344 116.296875 187.390625 115.5625 C 188.128906 114.824219 188.828125 114.054688 189.488281 113.25 C 190.152344 112.445312 190.773438 111.609375 191.351562 110.746094 C 191.933594 109.878906 192.46875 108.988281 192.960938 108.070312 C 193.453125 107.152344 193.898438 106.210938 194.296875 105.25 C 194.695312 104.289062 195.046875 103.308594 195.351562 102.3125 C 195.652344 101.316406 195.90625 100.308594 196.109375 99.289062 C 196.3125 98.269531 196.464844 97.238281 196.570312 96.203125 C 196.671875 95.167969 196.722656 94.128906 196.722656 93.089844 C 196.722656 92.046875 196.671875 91.007812 196.570312 89.972656 C 196.46875 88.9375 196.316406 87.90625 196.113281 86.886719 C 195.910156 85.867188 195.65625 84.855469 195.351562 83.859375 C 195.050781 82.863281 194.699219 81.886719 194.300781 80.925781 C 193.902344 79.960938 193.457031 79.023438 192.964844 78.105469 C 192.472656 77.1875 191.9375 76.292969 191.359375 75.429688 C 190.78125 74.5625 190.160156 73.726562 189.5 72.921875 C 188.835938 72.117188 188.136719 71.347656 187.398438 70.613281 C 186.664062 69.875 185.890625 69.175781 185.085938 68.515625 C 184.277344 67.855469 183.441406 67.238281 182.574219 66.65625 C 181.707031 66.078125 180.816406 65.542969 179.894531 65.054688 C 178.976562 64.5625 178.035156 64.117188 177.070312 63.71875 C 176.105469 63.320312 175.125 62.972656 174.128906 62.667969 C 173.128906 62.367188 172.121094 62.113281 171.097656 61.910156 C 170.074219 61.707031 169.042969 61.554688 168.007812 61.453125 C 166.96875 61.351562 165.925781 61.300781 164.882812 61.300781 C 163.84375 61.300781 162.800781 61.351562 161.761719 61.453125 C 160.726562 61.554688 159.695312 61.707031 158.671875 61.910156 C 157.648438 62.113281 156.640625 62.363281 155.640625 62.667969 C 154.644531 62.96875 153.664062 63.320312 152.699219 63.71875 C 151.734375 64.117188 150.792969 64.558594 149.875 65.050781 C 148.953125 65.542969 148.058594 66.074219 147.191406 66.65625 C 146.324219 67.234375 145.488281 67.851562 144.683594 68.511719 C 143.875 69.171875 143.105469 69.871094 142.367188 70.605469 C 141.628906 71.34375 140.929688 72.113281 140.269531 72.917969 C 139.605469 73.722656 138.988281 74.558594 138.40625 75.421875 C 137.828125 76.289062 137.292969 77.179688 136.800781 78.097656 C 136.308594 79.015625 135.863281 79.957031 135.464844 80.917969 C 135.066406 81.878906 134.714844 82.859375 134.410156 83.855469 C 134.109375 84.851562 133.855469 85.859375 133.652344 86.878906 C 133.449219 87.902344 133.296875 88.929688 133.195312 89.964844 C 133.089844 91.003906 133.039062 92.039062 133.039062 93.082031 C 133.042969 94.121094 133.09375 95.160156 133.199219 96.195312 C 133.300781 97.230469 133.457031 98.257812 133.660156 99.277344 C 133.867188 100.296875 134.121094 101.304688 134.421875 102.300781 C 134.726562 103.292969 135.078125 104.273438 135.480469 105.234375 C 135.878906 106.195312 136.324219 107.132812 136.816406 108.050781 C 137.308594 108.964844 137.84375 109.855469 138.421875 110.722656 C 139 111.585938 139.621094 112.421875 140.28125 113.226562 C 140.945312 114.027344 141.644531 114.796875 142.378906 115.535156 C 143.117188 116.269531 143.886719 116.96875 144.691406 117.628906 C 145.5 118.289062 146.332031 118.90625 147.199219 119.484375 C 148.066406 120.066406 148.957031 120.597656 149.878906 121.089844 C 150.796875 121.582031 151.734375 122.027344 152.699219 122.425781 C 153.660156 122.824219 154.640625 123.175781 155.636719 123.480469 C 156.632812 123.78125 157.644531 124.035156 158.664062 124.242188 C 159.6875 124.445312 160.714844 124.601562 161.753906 124.703125 C 162.789062 124.808594 163.828125 124.863281 164.871094 124.863281 Z M 164.871094 124.863281 " fill-opacity="0.78" fill-rule="evenodd"/></svg>